<svg aria-hidden="true" style="width:0;height:0;position:absolute;overflow:hidden" xmlns="http://www.w3.org/2000/svg"><defs><symbol id="icon-logo" viewBox="0 0 45 32"><path d="M1.123.474c.131 0 .466.014.975.035 3.292.137 13.857.575 23.58-.501.982-.109 1.543.932 1.403 2.019 10.826.401 17.68 2.64 17.82 4.193s-5.753 6.522-16.978 10.87l-.421-1.242c-1.2.393-2.641.851-4.206 1.348l-.006.002c-6.67 2.119-15.587 4.952-17.677 6.561 0 0 .281 3.113.281 7.461-1.403 1.398-2.675-.018-2.526 0C2.537 19.753 1.892 13.348 0 2.027.047 1.509.337.474 1.123.474zm4.49 19.557s.5-5.13 0-8.385c-.468-3.048-2.105-7.143-2.105-7.143 1.17 5.98 1.615 9.384 2.105 15.528zm5.818-8.523 2.775-.542-.261-1.64-2.775.542-.399-2.507 3.109-.607-.262-1.646-4.894.955 1.559 9.785 1.785-.348-.636-3.992zm10.051-2.155-.231-1.45c-.192-1.16-.585-2.012-1.178-2.557-.594-.549-1.317-.74-2.17-.573-.867.169-1.491.629-1.875 1.381-.384.747-.483 1.704-.297 2.869l.231 1.45c.186 1.121.574 1.946 1.165 2.475.59.525 1.315.704 2.175.536.863-.168 1.487-.614 1.871-1.338.387-.724.491-1.655.309-2.793zm-1.779-1.118.235 1.474c.112.723.097 1.276-.045 1.66-.142.38-.415.609-.818.688-.418.082-.754-.033-1.01-.343-.256-.314-.444-.842-.562-1.584l-.24-1.508c-.11-.735-.095-1.301.044-1.696.139-.399.414-.639.824-.719.414-.081.749.046 1.005.38s.445.884.567 1.649zm7.35 2.305c.338-.631.428-1.443.27-2.435l-.201-1.264c-.167-1.011-.51-1.754-1.027-2.229-.518-.478-1.148-.645-1.892-.5-.756.147-1.3.549-1.634 1.204-.335.652-.421 1.485-.259 2.501l.201 1.264c.162.977.5 1.696 1.016 2.158.514.458 1.146.614 1.896.468.752-.147 1.296-.536 1.631-1.166zm-1.775-4.847c-.223-.292-.515-.402-.876-.332a.898.898 0 0 0-.718.627c-.122.345-.135.838-.039 1.479l.209 1.315c.103.647.266 1.107.49 1.381.223.271.516.37.88.299a.897.897 0 0 0 .713-.6c.123-.335.136-.817.039-1.447l-.205-1.285c-.106-.667-.271-1.146-.494-1.438zm4.298 6.338 1.526-.298c.718-.14 1.242-.493 1.572-1.06.332-.57.43-1.283.293-2.141l-.168-1.057c-.142-.841-.457-1.463-.945-1.867-.484-.404-1.071-.539-1.759-.405l-1.559.304 1.039 6.523zm.326-5.657.69 4.332.356-.07c.397-.077.658-.247.783-.508.125-.265.146-.681.064-1.25l-.181-1.133c-.097-.609-.242-1.018-.434-1.227-.192-.212-.474-.288-.846-.228l-.433.085zm7.489 2.852-2.105.411L36.71 5.2l-.107-.672-3.295.643.152.951 2.105-.411-1.444 4.421.109.687 3.312-.646-.151-.947z"/></symbol><symbol id="icon-logo-gray" viewBox="0 0 43 32"><path fill="#8b8e93" style="fill:var(--color2,#8b8e93)" d="M1.071.474c.125 0 .445.014.93.035 3.14.137 13.22.575 22.496-.501.937-.109 1.473.932 1.339 2.019 10.328.401 16.867 2.64 17.001 4.194s-5.488 6.524-16.198 10.873l-.402-1.243c-1.145.394-2.519.851-4.012 1.349l-.006.002c-6.363 2.12-14.87 4.953-16.864 6.563 0 0 .268 3.114.268 7.463-1.339 1.398-2.552-.018-2.41 0C2.42 19.758 1.805 13.351 0 2.027.045 1.509.321.474 1.071.474zm4.284 19.563s.477-5.131 0-8.387c-.447-3.049-2.008-7.145-2.008-7.145 1.116 5.981 1.541 9.386 2.008 15.532zm5.549-8.525 2.648-.542-.249-1.64-2.648.542-.381-2.507 2.966-.607-.25-1.647-4.669.955 1.487 9.787 1.703-.348-.607-3.993zm9.591-2.156-.22-1.451c-.183-1.16-.558-2.012-1.124-2.557-.567-.549-1.257-.74-2.07-.574-.827.169-1.423.63-1.788 1.381-.366.748-.461 1.704-.284 2.869l.22 1.451c.177 1.121.548 1.946 1.111 2.476.563.526 1.255.704 2.075.537.823-.168 1.418-.615 1.785-1.338.37-.724.468-1.656.295-2.794zm-1.697-1.118.224 1.474c.106.723.092 1.277-.043 1.661-.135.38-.396.61-.781.688-.398.082-.719-.033-.963-.343-.244-.314-.423-.843-.536-1.584l-.229-1.509c-.105-.735-.091-1.301.042-1.697.133-.4.395-.639.786-.72.395-.081.715.046.959.381s.424.884.541 1.649zm7.012 2.305c.322-.632.408-1.443.257-2.435l-.192-1.265c-.16-1.011-.486-1.754-.98-2.229-.494-.479-1.095-.645-1.805-.5-.721.147-1.241.549-1.559 1.204-.319.652-.402 1.486-.247 2.501l.192 1.265c.155.977.477 1.697.969 2.158.491.458 1.094.614 1.809.468.718-.147 1.236-.536 1.556-1.167zm-1.694-4.848c-.213-.292-.491-.402-.836-.332-.341.07-.57.279-.685.627-.116.345-.128.838-.037 1.479l.2 1.315c.098.647.254 1.107.467 1.381.213.271.493.371.84.299.336-.069.562-.269.681-.6.118-.335.13-.817.037-1.448l-.195-1.285c-.101-.667-.258-1.146-.471-1.438zm4.099 6.34 1.456-.298c.685-.14 1.185-.493 1.5-1.06.317-.57.41-1.284.28-2.141l-.161-1.058c-.136-.841-.436-1.463-.901-1.867-.462-.404-1.022-.54-1.678-.405l-1.487.304.992 6.525zm.311-5.659.659 4.333.34-.07c.379-.077.628-.247.747-.509.119-.265.14-.682.061-1.251l-.172-1.134c-.093-.609-.23-1.019-.414-1.228-.183-.212-.452-.288-.807-.228l-.413.085zm7.146 2.853-2.008.411 1.358-4.439-.102-.672-3.143.643.145.952 2.008-.411-1.378 4.423.104.687 3.16-.646-.144-.948z"/></symbol><symbol id="icon-logo-white" viewBox="0 0 42 32"><path fill="#fff" style="fill:var(--color3,#fff)" d="M1.034.743c.121 0 .43.014.898.035 3.032.136 12.765.573 21.722-.499.905-.108 1.422.929 1.293 2.012 9.973.4 16.286 2.631 16.415 4.178s-5.299 6.5-15.64 10.833l-.388-1.238c-1.105.392-2.432.848-3.873 1.344l-.006.002c-6.144 2.112-14.358 4.935-16.284 6.539 0 0 .258 3.103.258 7.436-1.293 1.393-2.465-.018-2.327 0C2.337 19.957 1.742 13.574 0 2.291.043 1.775.31.743 1.034.743zM5.17 20.235s.46-5.113 0-8.357C4.739 8.84 3.231 4.759 3.231 4.759c1.078 5.96 1.488 9.352 1.939 15.476zm5.36-8.494 2.556-.54-.241-1.634-2.556.54-.368-2.498 2.864-.605-.242-1.641-4.509.952 1.436 9.752 1.645-.347-.586-3.978zm9.259-2.148-.213-1.445c-.177-1.156-.538-2.005-1.085-2.548-.547-.547-1.213-.737-1.999-.572-.798.169-1.374.627-1.727 1.376-.354.745-.445 1.698-.274 2.859l.213 1.445c.171 1.117.529 1.939 1.073 2.467.544.524 1.211.702 2.003.535.795-.168 1.369-.612 1.723-1.333.357-.722.452-1.649.285-2.783zM18.15 8.479l.216 1.469c.103.72.089 1.272-.041 1.655-.131.379-.382.607-.754.686-.385.081-.695-.033-.93-.342-.236-.313-.409-.839-.517-1.579l-.221-1.503c-.101-.733-.088-1.296.041-1.69.128-.398.381-.637.759-.717.381-.08.69.046.926.379s.41.881.522 1.643zm6.771 2.296c.311-.629.394-1.438.248-2.427l-.186-1.26c-.154-1.008-.47-1.748-.946-2.221-.477-.477-1.058-.643-1.742-.498-.696.147-1.198.547-1.505 1.2-.308.649-.388 1.48-.239 2.492l.186 1.26c.149.974.461 1.691.936 2.15.474.456 1.056.612 1.746.466.693-.146 1.194-.534 1.502-1.162zm-1.635-4.83c-.206-.291-.474-.401-.807-.331-.33.07-.55.278-.662.625-.112.344-.124.835-.036 1.474l.193 1.311c.095.644.245 1.103.451 1.376.205.27.476.369.811.298.324-.068.543-.268.657-.598.114-.334.126-.814.036-1.442l-.189-1.28c-.098-.665-.25-1.142-.455-1.433zm3.959 6.317 1.406-.297c.661-.14 1.144-.492 1.448-1.056.306-.568.396-1.279.27-2.133l-.155-1.054c-.131-.838-.421-1.458-.87-1.86-.446-.403-.986-.538-1.621-.404l-1.436.303.957 6.501zm.3-5.639.636 4.318.328-.069c.366-.077.606-.246.721-.507.115-.264.135-.679.059-1.246l-.166-1.13c-.089-.607-.223-1.015-.399-1.223-.177-.211-.437-.287-.779-.227l-.399.084zm6.899 2.843-1.939.409 1.312-4.422-.099-.669-3.035.641.14.948 1.939-.409-1.331 4.407.101.685 3.051-.644-.139-.944z"/></symbol><symbol id="icon-pizza" viewBox="0 0 32 32"><path d="M23.026 21.958c-.505.058-.722.461-.975.798-1.027 1.37-2.078 1.737-3.731 1.28-1.272-.352-1.623-.186-2.238 1.009a8.488 8.488 0 0 1-.776 1.325 2.34 2.34 0 0 1-2.831.681 2.324 2.324 0 0 1-.82-.638 2.9 2.9 0 0 0-.217-.24c-.408-.381-.827-.302-.976.244-.126.463-.131.959-.186 1.44-.084.723-.153 1.449-.253 2.17-.039.24-.113.473-.221.691-.548 1.155-1.897 1.288-2.576.201-.333-.533-.481-1.189-.665-1.804-.146-.49-.178-1.013-.333-1.498-.191-.596-.475-.686-1.051-.428a8.494 8.494 0 0 1-1.036.451c-1.252.372-2.414-.3-2.766-1.555-.165-.589-.248-1.098.296-1.605.358-.334.537-.864.78-1.316 2.542-4.737 5.343-9.32 8.334-13.786 1.608-2.4 3.244-4.783 4.877-7.167.305-.445.668-.85.978-1.292.386-.553.905-.729 1.55-.638 1.314.184 2.481.748 3.567 1.463 4.348 2.862 7.188 6.786 8.285 11.911.231 1.077.562 2.138.4 3.276-.054.382.133.792.167 1.194a3.131 3.131 0 0 1-.361 1.879c-.31.537-.724.831-1.392.74-.787-.107-.948.026-1.079.812-.11.665-.169 1.339-.268 2.006a5.578 5.578 0 0 1-.205.865c-.286.901-.78 1.298-1.621 1.324-.93.03-1.656-.426-1.942-1.285-.126-.379-.136-.795-.226-1.187-.105-.457-.029-.988-.487-1.319zm-2.196-9.11c-.011-.024-.016-.061-.035-.072a2.314 2.314 0 0 0-.351-.187c-1.055-.381-1.669-1.143-1.941-2.211-.093-.365-.177-.733-.289-1.092a8.718 8.718 0 0 0-.478-1.367c-.468-.918-1.453-1.29-2.724-1.132-.911.113-1.101.852-1.5 1.524 1.321.171 1.902.972 2.043 2.084a4.616 4.616 0 0 1-1.382 3.984c-1.222 1.221-2.908 1.379-4.393.497-.156-.093-.305-.198-.529-.343L3.262 24.19l.105.152 4.143-1.329c.018-.184.03-.263.032-.343.003-.108-.011-.217 0-.324.178-1.855.88-3.372 2.653-4.244 1.807-.889 4.604-.675 5.717 1.686.055.099.117.194.186.284.325-.111.63-.209.932-.318.319-.115.633-.242.941-.36-.784-2.505.377-5.103 2.86-6.548zM8.26 30.46l.227-.052c.384-.584.382-1.265.447-1.928.074-.751.082-1.515.231-2.25.223-1.101 1.153-1.687 2.159-1.423.434.114.873.233 1.188.624.289.358.715.572 1.146.322.292-.186.522-.455.662-.772a4.68 4.68 0 0 1 1.854-2.076 2.332 2.332 0 0 1 2.002-.322c.259.075.513.176.777.224.686.125 1.285.005 1.698-.636a6.09 6.09 0 0 1 .556-.695c.583-.662 1.272-1.148 2.197-.876.887.261 1.206 1.014 1.354 1.853.075.425.128.854.206 1.278.055.301.151.605.527.617s.366-.333.451-.573c.04-.129.066-.262.077-.397.079-.669.151-1.34.229-2.009.185-1.574 1.223-2.171 2.418-1.99.044.007.096-.038.237-.097l.199-1.512c-1.277.351-2.407.616-3.506.972-5.234 1.694-10.452 3.44-15.694 5.11-2.336.744-4.714 1.354-7.074 2.023-.162.046-.327.079-.519.124.554.791.848.893 1.584.572.246-.108.469-.267.713-.38a3.02 3.02 0 0 1 .747-.286c.917-.15 1.671.301 1.992 1.265.228.687.315 1.419.499 2.122.104.397.277.778.419 1.166h-.001zm17.961-13.706a6.443 6.443 0 0 0-.095-.718c-.911-3.534-2.467-6.737-4.957-9.434-1.267-1.373-2.87-2.23-4.657-2.813l-1.495 2.155c.324 0 .486.012.646-.002 1.659-.148 2.837.929 3.31 2.409.148.461.273.93.397 1.398.238.894.709 1.557 1.662 1.799.259.078.507.188.739.326.998.54 1.609 1.361 1.664 2.509.006.647-.021 1.293-.081 1.937-.023.417-.059.833-.093 1.3l2.961-.865zm2.742-.706c-.022-.278-.028-.438-.049-.597-.639-4.887-2.738-8.952-6.789-11.879a16.456 16.456 0 0 0-2.716-1.578c-1.259-.582-1.393-.491-2.115.706-.022.036-.003.096-.003.143.046.031.095.058.145.081.152.055.308.098.46.155 1.796.674 3.377 1.655 4.662 3.112a22.637 22.637 0 0 1 4.602 8.2l.62 1.943 1.183-.289zm-14.27 4.51c-.372-1.167-1.335-1.697-2.591-1.51-1.787.267-2.974 1.596-2.975 3.393l5.566-1.883zm-4.643-7.152c1.17.921 2.313.848 3.066-.153a3.409 3.409 0 0 0 .704-2.11c-.009-.917-.354-1.269-1.369-1.379l-2.401 3.643zm11.731 4.704c.106-.755.206-1.421.291-2.09.087-.682.32-1.366.037-2.055-1.836.358-3.119 3.008-2.329 4.808l2-.663z"/></symbol><symbol id="icon-hamburger" viewBox="0 0 32 32"><path d="M29.447 20.365H21.76l1.877-1.021h5.811a.511.511 0 0 0 0-1.022h-5.941a.509.509 0 0 0-.244.062l-3.751 2.041-.003.002-3.508 1.909-3.508-1.909-.003-.002-3.751-2.041a.509.509 0 0 0-.244-.062H2.554a.511.511 0 0 0 0 1.022h5.811l1.877 1.021H2.555c-1.408 0-2.553 1.145-2.553 2.553s1.145 2.553 2.553 2.553h26.894c1.408 0 2.553-1.145 2.553-2.553s-1.145-2.553-2.553-2.553zm0 4.085H2.553c-.845 0-1.532-.687-1.532-1.532s.687-1.532 1.532-1.532h9.564l3.639 1.98a.514.514 0 0 0 .488 0l3.639-1.98h9.564c.845 0 1.532.687 1.532 1.532s-.687 1.532-1.532 1.532zM23.115 29.046a.511.511 0 1 0-1.023 0 .511.511 0 0 0 1.023 0z"/><path d="M29.447 26.493H8.681a.511.511 0 0 0 0 1.022H28.9a3.58 3.58 0 0 1-3.538 3.064H6.639a3.58 3.58 0 0 1-3.538-3.064h3.538a.511.511 0 0 0 0-1.022H2.554a.511.511 0 0 0-.511.511A4.602 4.602 0 0 0 6.639 31.6h18.723a4.602 4.602 0 0 0 4.596-4.596.511.511 0 0 0-.511-.511zM7.353 11.763a.511.511 0 1 0 0 1.023.511.511 0 0 0 0-1.023zM24.647 11.763a.511.511 0 1 0 0 1.023.511.511 0 0 0 0-1.023zM9.396 13.192a.511.511 0 1 0 0 1.023.511.511 0 0 0 0-1.023z"/><path d="M2.553 17.301h26.894a.511.511 0 0 0 .511-.511v-1.608c0-4.036-3.283-7.319-7.319-7.319h-6.128V5.659l4.493-2.074a.51.51 0 0 0 0-.928L16.215.446a.51.51 0 0 0-.724.463v6.952H9.363c-4.036 0-7.319 3.283-7.319 7.319v1.608c0 .282.229.511.511.511zM16.511 1.709l3.06 1.413-3.06 1.413V1.71zM3.064 15.183a6.305 6.305 0 0 1 6.298-6.298h13.277a6.305 6.305 0 0 1 6.298 6.298v1.097H3.065v-1.097z"/></symbol><symbol id="icon-sushi" viewBox="0 0 32 32"><path d="M18.051 19.845a.539.539 0 0 0-.329.12c-1.041-1.519-4.442-2.33-7.682-2.33s-6.641.811-7.682 2.33a.539.539 0 0 0-.329-.12.552.552 0 0 0-.552.552v9.392c0 .305.247.552.552.552h.034c1.352 1.143 4.918 1.658 7.977 1.658s6.625-.514 7.977-1.658h.034a.552.552 0 0 0 .552-.552v-9.392a.552.552 0 0 0-.552-.552zM10.04 18.74c4.279 0 6.906 1.287 6.906 2.21s-2.627 2.21-6.906 2.21-6.906-1.287-6.906-2.21 2.627-2.21 6.906-2.21zm7.459 10.586a.54.54 0 0 0-.104.087c-.67.718-3.475 1.482-7.355 1.482s-6.685-.764-7.355-1.482a.506.506 0 0 0-.104-.087v-7.114c1.245 1.339 4.422 2.053 7.459 2.053s6.214-.713 7.459-2.053v7.114z"/><path d="M9.764 22.608c1.597 0 3.315-.519 3.315-1.658s-1.719-1.658-3.315-1.658c-1.596 0-3.315.519-3.315 1.658s1.718 1.658 3.315 1.658zm0-2.211c1.297 0 2.054.372 2.196.552-.143.181-.899.552-2.196.552s-2.054-.372-2.196-.552c.143-.181.9-.552 2.196-.552zM30.015 0l.509.981L2.773 15.382l-.509-.981L30.015 0zM2.87 17.367l-.441-1.013 26.935-11.71.441 1.013L2.87 17.367z"/></symbol><symbol id="icon-noodles" viewBox="0 0 32 32"><path d="M27.152 1.26h-5.796a.49.49 0 1 0 0 .98h5.568v.457H14.349V2.24h4.72a.49.49 0 1 0 0-.98h-4.721A1.268 1.268 0 0 0 13.075 0c-.295 0-.567.102-.783.271a1.267 1.267 0 0 0-1.568 0 1.267 1.267 0 0 0-1.568 0 1.275 1.275 0 0 0-2.058.989H5.075a.752.752 0 0 0-.751.751v.291a.73.73 0 0 0-.083.246l-.137.904a.748.748 0 0 0 .63.855l2.363.357v1.572a.49.49 0 1 0 .98 0V4.813l.588.089v7.627h-.588V8.62a.49.49 0 1 0-.98 0v3.909H4.733a.488.488 0 0 0-.488.53l1.263 15.568v.001l.237 2.922a.49.49 0 0 0 .488.45h11.333a.49.49 0 0 0 .488-.45l.237-2.922.255-3.138a.49.49 0 1 0-.977-.079l-.21 2.591c-.238-.152-.432-.466-.684-.896-.387-.661-.868-1.484-1.875-1.484s-1.488.823-1.874 1.483c-.362.619-.605.998-1.028.998s-.666-.379-1.028-.998c-.387-.661-.868-1.484-1.875-1.484s-1.488.823-1.874 1.483c-.251.429-.445.743-.681.895l-.476-5.87h1.667c.813 1.528 2.421 2.571 4.269 2.571s3.456-1.043 4.269-2.571h1.667l-.05.622a.49.49 0 1 0 .977.079l.793-9.773a.49.49 0 0 0-.488-.53h-4.72V5.759l12.215 1.847a.746.746 0 0 0 .558-.138.744.744 0 0 0 .297-.492l.137-.904a.752.752 0 0 0-.63-.855L16.727 3.675h10.425a.752.752 0 0 0 .751-.751V2.01a.752.752 0 0 0-.751-.751zM7.969 27.599c.362-.619.605-.998 1.028-.998s.667.38 1.029.999c.386.661.867 1.483 1.874 1.483s1.488-.823 1.874-1.483c.362-.619.605-.998 1.028-.998s.667.38 1.029.999c.327.559.722 1.235 1.446 1.429l-.162 1.992H6.686l-.162-1.993c.722-.195 1.117-.87 1.444-1.428zm4.812-26.325a.294.294 0 0 1 .588 0v1.895l-.588-.089V1.274zm-1.568 0a.294.294 0 0 1 .588 0v1.658l-.588-.089V1.274zm-1.567 0a.294.294 0 0 1 .588 0v1.421l-.588-.089V1.274zm-1.568 0a.294.294 0 0 1 .588 0v1.184l-.588-.089V1.274zM7.243 21.15H5.886l-.208-2.565h1.565a4.803 4.803 0 0 0 0 2.564zm4.659 2.571c-2.125 0-3.853-1.728-3.853-3.853s1.728-3.853 3.853-3.853 3.853 1.728 3.853 3.853a3.857 3.857 0 0 1-3.853 3.853zm6.015-2.571H16.56a4.803 4.803 0 0 0 0-2.564h1.565l-.208 2.565zm.62-7.642-.332 4.097h-2.034c-.813-1.528-2.421-2.57-4.269-2.57s-3.456 1.043-4.269 2.57H5.599l-.332-4.097H18.535zm-8.891-.979V5.05l.588.089v7.39h-.588zm1.567 0V5.287l.588.089v7.153h-.588zm1.568 0V5.524l.588.089v6.916h-.588zm13.771-6.376-.068.452L5.109 3.372l.068-.452 21.375 3.233z"/></symbol><symbol id="icon-steak" viewBox="0 0 32 32"><path d="M30.733 11.993c-2.34-2.926-6.703-6.382-14.525-7.284-4.779-.551-10.06-.269-13.53 3.131C.951 9.532 0 11.779 0 14.168v3.649c0 4.425 3.36 9.164 9.783 9.659 3.409.264 5.356-.99 7.52-3.053 1.446-1.38 2.243-2.14 4.165-1.017 6.695 3.906 10.533-.546 10.533-4.219v-3.649c0-1.282-.438-2.508-1.267-3.545zm-9.55-4.655 7.392 11.755a3.954 3.954 0 0 1-2.567.679L17.635 6.457a24.53 24.53 0 0 1 3.548.881zm-5.522-1.152 8.198 13.037c-1.712-.662-2.439-1.51-3.964-1.542L12.56 6.016c.916.004 2.034.06 3.101.17zM3.747 8.932C5.4 7.313 7.813 6.345 10.801 6.086l7.521 11.96c-2.392 1.186-3.568 4.634-8.421 4.259-5.239-.404-8.373-4.13-8.373-8.136 0-1.975.788-3.835 2.22-5.237zm21.701 14.41a10.655 10.655 0 0 1-3.211-1.254c-2.913-1.703-4.477-.212-5.988 1.23-1.421 1.355-3.032 2.892-6.349 2.636-3.659-.282-7.359-2.557-8.197-6.447 1.872 2.653 4.911 4.076 8.08 4.32 3.409.264 5.357-.99 7.52-3.053 1.446-1.38 2.243-2.14 4.165-1.017 3.098 1.808 6.591 2.361 8.995-.278-.166 2.329-2.293 4.422-5.014 3.862zm4.238-5.35-6.09-9.684c2.8 1.341 4.691 3.072 5.944 4.639 1.247 1.56 1.191 3.559.146 5.045z"/><path d="M8.256 18.044c1.632 0 2.959-1.327 2.959-2.958s-1.327-2.959-2.959-2.959c-1.632 0-2.959 1.327-2.959 2.959s1.327 2.958 2.959 2.958zm0-4.39a1.432 1.432 0 1 1 0 2.861 1.432 1.432 0 0 1 0-2.861z"/></symbol><symbol id="icon-dessert" viewBox="0 0 32 32"><path d="M27.083 19.57a.637.637 0 0 0-.5-.242h-1.62l.319-.585c.502-.92.483-2.008-.052-2.91s-1.481-1.44-2.529-1.44h-.37a2.915 2.915 0 0 0-.377-1.967 2.915 2.915 0 0 0-2.529-1.44h-.745a3.385 3.385 0 0 0 .748-2.124 3.403 3.403 0 0 0-2.758-3.337c.045-.972.365-3.357 2.392-4.311a.637.637 0 1 0-.543-1.153c-2.709 1.275-3.088 4.271-3.128 5.464a3.404 3.404 0 0 0-2.76 3.338c0 .803.281 1.541.748 2.124h-.804a2.914 2.914 0 0 0-2.529 1.44 2.92 2.92 0 0 0-.377 1.967h-.37c-1.049 0-1.994.538-2.529 1.44s-.555 1.99-.052 2.91l.319.585h-1.62a.637.637 0 0 0-.62.784L7.491 31.51a.637.637 0 0 0 .62.491h15.778a.636.636 0 0 0 .62-.491l2.694-11.397a.64.64 0 0 0-.12-.542zM16.029 6.739c1.171 0 2.124.953 2.124 2.124s-.953 2.124-2.124 2.124c-1.171 0-2.124-.953-2.124-2.124s.953-2.124 2.124-2.124zm-4.887 6.338a1.652 1.652 0 0 1 1.433-.816h6.851c.48 0 .923.2 1.235.546h-3.279a.637.637 0 1 0 0 1.274h3.705c-.01.105-.03.209-.06.311H10.975a1.649 1.649 0 0 1 .168-1.317zm-3.276 3.407a1.652 1.652 0 0 1 1.433-.816h13.402c.594 0 1.13.305 1.433.816s.314 1.127.03 1.649l-.653 1.195H8.489l-.394-.723h4.057a.637.637 0 1 0 0-1.274H7.631c.001-.292.079-.583.235-.847zm.749 14.241L6.222 20.603h5.397l.871 10.122H8.615zm9.615 0h-4.46l-.871-10.122H19.1l-.871 10.122zm5.155 0H19.51l.871-10.122h5.397l-2.392 10.122z"/><path d="M14.737 17.331h-.352a.637.637 0 1 0 0 1.274h.352a.637.637 0 1 0 0-1.274z"/></symbol><symbol id="icon-drink" viewBox="0 0 32 32"><path d="M22.825 7.831h-1.947V5.894l4.624-3.391-.785-1.07-4.895 3.589a.665.665 0 0 0-.271.535V7.83h-6.504V6.546h4.558a.663.663 0 0 0 .663-.663c0-3.244-2.64-5.884-5.885-5.884s-5.884 2.64-5.884 5.884c0 .366.297.663.663.663h4.557V7.83H9.772a.664.664 0 0 0-.664.664V30.03a1.97 1.97 0 0 0 1.969 1.969h10.442a1.97 1.97 0 0 0 1.969-1.969V8.494a.663.663 0 0 0-.663-.663zM7.874 5.221c.049-.332.134-.652.25-.957h6.217V2.937h-5.43a4.548 4.548 0 0 1 3.472-1.61 4.564 4.564 0 0 1 4.509 3.894H7.873zm14.287 24.81a.643.643 0 0 1-.642.642H11.077a.643.643 0 0 1-.642-.642V15.088c.48.09.797.279 1.168.502.583.35 1.244.747 2.515.747 1.274 0 1.937-.397 2.521-.748.519-.311.929-.557 1.832-.557.907 0 1.318.247 1.839.559.472.283.995.597 1.851.706v13.734zm0-15.077c-.48-.09-.797-.278-1.168-.501-.584-.351-1.247-.748-2.521-.748-1.27 0-1.931.397-2.514.746-.521.312-.932.559-1.839.559-.903 0-1.313-.246-1.832-.558-.472-.284-.995-.598-1.851-.707V9.158h11.725v5.796z"/><path d="M15.657 19.426c0-.996-.81-1.806-1.806-1.806s-1.806.81-1.806 1.806a1.807 1.807 0 0 0 3.612 0zm-2.284 0c0-.268.21-.479.479-.479s.479.21.479.479c0 .268-.21.479-.479.479s-.479-.21-.479-.479zM17.267 22.689c0 .996.81 1.805 1.806 1.805s1.805-.81 1.805-1.805c0-.996-.81-1.805-1.805-1.805s-1.806.81-1.806 1.805zm2.284 0c0 .268-.21.479-.479.479s-.479-.21-.479-.479c0-.268.21-.479.479-.479s.479.21.479.479zM15.157 25.452c-.996 0-1.806.81-1.806 1.805s.81 1.806 1.806 1.806 1.806-.81 1.806-1.806-.81-1.805-1.806-1.805zm0 2.284c-.268 0-.479-.21-.479-.479s.21-.479.479-.479.479.21.479.479c0 .268-.21.479-.479.479zM12.72 11.443h.968v-1.327h-1.632a.663.663 0 0 0-.663.664v1.305h1.327v-.642z"/></symbol><symbol id="icon-phone-call" viewBox="0 0 32 32"><path d="M17.333 10.667a4 4 0 0 1 4 4 1.333 1.333 0 0 0 2.666 0A6.667 6.667 0 0 0 17.332 8a1.333 1.333 0 0 0 0 2.666z"/><path d="M17.333 5.333a9.333 9.333 0 0 1 9.333 9.333 1.333 1.333 0 0 0 2.666 0c0-6.627-5.373-12-12-12a1.333 1.333 0 0 0 0 2.666zM29 21.213a1.34 1.34 0 0 0-.951-.865l-.009-.002-8-1.827a1.328 1.328 0 0 0-1.227.347c-.187.173-.2.187-1.067 1.84-2.886-1.352-5.153-3.627-6.459-6.439l-.034-.082c1.693-.853 1.707-.853 1.88-1.053a1.328 1.328 0 0 0 .345-1.236l.002.009-1.827-7.907a1.337 1.337 0 0 0-.857-.957l-.009-.003a4.736 4.736 0 0 0-.932-.236l-.028-.004a5.037 5.037 0 0 0-1.018-.133h-.008a6.133 6.133 0 0 0-6.133 6.133c.015 11.334 9.199 20.518 20.532 20.533h.001a6.133 6.133 0 0 0 6.133-6.133v-.008a6.41 6.41 0 0 0-.085-1.043l.005.037a5.837 5.837 0 0 0-.266-1.014l.013.04z"/></symbol><symbol id="icon-user-ava" viewBox="0 0 32 32"><path d="M23.42 7.42a7.42 7.42 0 1 1-14.84 0 7.42 7.42 0 0 1 14.84 0zM16 18.551C8.572 18.551 2.551 24.572 2.551 32H29.45c0-7.428-6.021-13.449-13.449-13.449z"/></symbol><symbol id="icon-facebook" viewBox="0 0 32 32"><path d="M8.434 17.043h3.508v14.441c0 .285.231.516.516.516h5.947a.516.516 0 0 0 .516-.516V17.111h4.032a.517.517 0 0 0 .513-.457l.612-5.316a.517.517 0 0 0-.512-.575h-4.645V7.43c0-1.005.541-1.514 1.608-1.514h3.037a.516.516 0 0 0 .516-.516V.52a.516.516 0 0 0-.516-.516h-4.185C19.351.003 19.286 0 19.189 0c-.726 0-3.25.143-5.244 1.977-2.209 2.033-1.902 4.467-1.829 4.889v3.897H8.434a.516.516 0 0 0-.516.516v5.248c0 .285.231.516.516.516z"/></symbol><symbol id="icon-instagram" viewBox="0 0 32 32"><path d="M4.109.001h23.784A4.118 4.118 0 0 1 32 4.109v23.784a4.117 4.117 0 0 1-4.107 4.106H4.109A4.12 4.12 0 0 1 0 27.893V4.109A4.12 4.12 0 0 1 4.109.001zm19.203 3.554c-.793 0-1.441.65-1.441 1.443v3.447c0 .793.647 1.441 1.441 1.441h3.616c.792 0 1.441-.648 1.441-1.441V4.998c0-.793-.649-1.443-1.441-1.443h-3.616zm5.07 9.978h-2.816c.267.872.412 1.792.412 2.748 0 5.321-4.455 9.636-9.948 9.636-5.492 0-9.947-4.316-9.947-9.636 0-.956.146-1.876.412-2.748H3.557v13.518c0 .7.572 1.27 1.271 1.27h22.283c.7 0 1.27-.57 1.27-1.27V13.533zM16.03 9.704c-3.548 0-6.426 2.787-6.426 6.228 0 3.438 2.878 6.227 6.426 6.227 3.55 0 6.428-2.789 6.428-6.227 0-3.441-2.878-6.228-6.428-6.228z"/></symbol><symbol id="icon-twitter" viewBox="0 0 32 32"><path d="M31.939 6.092a13.31 13.31 0 0 1-3.767 1.033 6.613 6.613 0 0 0 2.884-3.631 13.55 13.55 0 0 1-4.169 1.579A6.56 6.56 0 0 0 15.539 9.55c0 .52.06 1.02.169 1.499-5.453-.257-10.287-2.876-13.521-6.835a6.432 6.432 0 0 0-.888 3.3 6.56 6.56 0 0 0 2.917 5.461 6.554 6.554 0 0 1-2.971-.821v.081a6.564 6.564 0 0 0 5.261 6.436 6.663 6.663 0 0 1-2.949.113 6.582 6.582 0 0 0 6.139 4.556 13.156 13.156 0 0 1-8.136 2.807c-.52 0-1.039-.031-1.56-.089a18.657 18.657 0 0 0 10.076 2.945c12.072 0 18.665-9.995 18.665-18.648 0-.279 0-.56-.02-.84 1.281-.919 2.4-2.08 3.28-3.397l-.063-.027z"/></symbol><symbol id="icon-search" viewBox="0 0 32 32"><path d="M14.04 4.637a9.404 9.404 0 1 0 0 18.808 9.404 9.404 0 0 0 0-18.808zM2.286 14.04c0-6.492 5.263-11.755 11.755-11.755S25.796 7.548 25.796 14.04c0 6.492-5.263 11.755-11.755 11.755S2.286 20.532 2.286 14.04z"/><path d="m22.718 20.97 6.633 6.633a1.238 1.238 0 0 1-1.75 1.75l-6.634-6.634 1.75-1.75z"/></symbol><symbol id="icon-favorite" viewBox="0 0 32 32"><path d="M27.175 8.09C24.207 4.265 18.36 4.743 16 8.838 13.64 4.743 7.793 4.265 4.825 8.09l-.412.532a7.937 7.937 0 0 0 .837 10.651l9.294 8.73c.139.131.291.273.434.383.165.127.395.274.702.334.212.042.43.042.642 0 .307-.06.537-.207.702-.334.143-.11.295-.253.434-.383l9.293-8.73a7.937 7.937 0 0 0 .837-10.651l-.413-.532z"/></symbol><symbol id="icon-shopping-bag" viewBox="0 0 32 32"><path d="M15.874.636c-3.612 0-6.295 2.939-6.295 6.55v6.541c0 .421.297.763.718.763s.789-.342.789-.763V7.174c0-2.77 2.143-5.024 4.913-5.024s4.913 2.254 4.913 5.024v6.553c0 .421.335.763.756.763s.756-.342.756-.763V7.186a6.558 6.558 0 0 0-6.551-6.55z"/><path d="M29.107 10.66c-.021-.12-.103-.209-.225-.209H3.114a.252.252 0 0 0-.248.209L.002 27.554v2.187c0 .895.63 1.623 1.526 1.623H30.47c.895 0 1.532-.728 1.532-1.623v-2.187L29.109 10.66zm-18.892 4.831a1.766 1.766 0 0 1-1.764-1.764 1.77 1.77 0 0 1 1.157-1.656c.027-.01.057-.059.086-.059l1.031-.048h.001c.029 0 .058.049.085.059.698.251 1.168.94 1.168 1.683 0 .972-.791 1.786-1.764 1.786zm11.577 0a1.766 1.766 0 0 1-1.764-1.764 1.77 1.77 0 0 1 1.157-1.656.251.251 0 0 1 .086-.015l1.031-.003a.22.22 0 0 1 .086.015 1.77 1.77 0 0 1 1.168 1.661c0 .973-.792 1.764-1.764 1.764z"/></symbol><symbol id="icon-zoom" viewBox="0 0 32 32"><path d="m31.636 29.876-7.81-7.809a13.406 13.406 0 0 0 3.111-8.598C26.937 6.042 20.895 0 13.469 0S.001 6.042.001 13.469c0 7.426 6.042 13.468 13.468 13.468a13.4 13.4 0 0 0 8.598-3.111l7.81 7.81c.243.243.561.364.88.364s.637-.121.88-.364a1.243 1.243 0 0 0 0-1.759zM2.488 13.469c0-6.055 4.926-10.98 10.98-10.98s10.98 4.926 10.98 10.98-4.925 10.979-10.98 10.979-10.98-4.925-10.98-10.979z"/><path d="M19.58 12.224h-4.868V7.356a1.244 1.244 0 0 0-2.488 0v4.868H7.356a1.244 1.244 0 0 0 0 2.488h4.868v4.868a1.244 1.244 0 0 0 2.488 0v-4.868h4.868a1.244 1.244 0 0 0 0-2.488z"/></symbol><symbol id="icon-clear" viewBox="0 0 32 32"><path fill="#777a83" style="fill:var(--color4,#777a83)" d="M27.981 0c1.782 0 2.674 2.154 1.414 3.414l-1.684 1.684A16.001 16.001 0 1 1 .164 18.287a2 2 0 1 1 3.958-.572 12.002 12.002 0 0 0 6.705 9.112 12 12 0 0 0 16.039-15.919 11.988 11.988 0 0 0-1.987-2.981l-1.466 1.466c-1.26 1.26-3.414.368-3.414-1.414V-.002h7.981zM3 8a2 2 0 1 1 .001 3.999A2 2 0 0 1 3 8zm4.5-5.5a2 2 0 1 1 .001 3.999A2 2 0 0 1 7.5 2.5zM14 0a2 2 0 1 1 .001 3.999A2 2 0 0 1 14 0z"/></symbol><symbol id="icon-information" viewBox="0 0 32 32"><path fill="#dddee0" style="fill:var(--color5,#dddee0)" d="M16 0C7.178 0 0 7.178 0 16s7.178 16 16 16 16-7.178 16-16S24.822 0 16 0zm0 29.091C8.782 29.091 2.909 23.219 2.909 16S8.781 2.909 16 2.909 29.091 8.782 29.091 16c0 7.218-5.873 13.091-13.091 13.091z"/><path fill="#dddee0" style="fill:var(--color5,#dddee0)" d="M16 6.788c-1.069 0-1.939.87-1.939 1.94s.87 1.939 1.939 1.939 1.939-.87 1.939-1.939c0-1.07-.87-1.94-1.939-1.94zM16 13.576c-.803 0-1.455.651-1.455 1.455v8.727a1.455 1.455 0 0 0 2.91 0v-8.727c0-.803-.651-1.455-1.455-1.455z"/></symbol><symbol id="icon-leaf" viewBox="0 0 32 32"><path fill="#6fba54" style="fill:var(--color6,#6fba54)" d="M21.567 0s2.827 6.916-9.289 11.561C5.695 14.085.638 20.552 6.675 30.544c.5-4.466 2.644-14.313 11.863-16.56 0 0-8.58 3.208-9.338 17.732 4.409.619 14.749 1.035 17.819-7.938C31.073 11.922 21.566 0 21.566 0z"/></symbol><symbol id="icon-peper" viewBox="0 0 32 32"><path fill="#d1333c" style="fill:var(--color1,#d1333c)" d="M26.003 10.467c-.517-1.435-2.512-2.177-3.444-2.368-.646-.144-2.397-.38-4.234-.179s-3.516 2.141-4.126 3.085c-.837 1.674-1.086 4.408-1.266 6.812-.099 1.324-.588 3.999-.851 5.315s-1.49 1.966-2.925 2.798c-1.435.832-3.018.455-3.712 0-.718-.49-2.235-1.764-1.575-2.826s1.295-.714 1.511-.755.888-.399.065-.755c0 0-3.086-.755-3.659 2.543-.587 3.372.993 5.298 1.901 5.848 1.029.777 4.147 2.081 8.395 1.076 5.31-1.256 7.265-2.981 8.404-4.18 2.962-3.115 4.784-7.751 5.516-10.315.43-1.507.646-4.305 0-6.099z"/><path fill="#3a9c16" style="fill:var(--color7,#3a9c16)" d="M20.637 5.178c-2.321-.663-4.531 2.497-4.531 2.891s.509.231.509.231c1.156-.185 3.486-.259 4.855 0s3.93 1.409 4.716 2.195c.277-.046.333-.166.555-.462.277-.37-.275-1.596-.555-1.964-.37-.487-1.063-.641-1.48-1.202-.279-.376-.555-.768-.555-1.063 0-.37 1.387-1.873 2.034-2.358.468-.35 2.851-1.464 4.069-1.896.169-.123.324-.518-.416-1.11-.925-.74-1.202-.324-1.988-.324-.629 0-2.728 1.942-3.699 2.913s-2.266 3.029-2.358 3.144c-.092.115-.786.484-1.017.324s.185-1.226-.139-1.319z"/></symbol><symbol id="icon-location" viewBox="0 0 32 32"><path fill="#fe8128" style="fill:var(--color8,#fe8128)" d="M16 0C9.254 0 3.765 5.489 3.765 12.236c0 4.821 2.018 9.698 5.837 14.103 2.852 3.29 5.679 5.154 5.798 5.232a1.096 1.096 0 0 0 1.2 0c.119-.078 2.946-1.942 5.798-5.232 3.819-4.405 5.837-9.282 5.837-14.103C28.235 5.489 22.746 0 15.999 0zm0 29.307c-2.25-1.677-10.041-8.13-10.041-17.07C5.959 6.699 10.463 2.194 16 2.194s10.042 4.505 10.042 10.043c0 8.94-7.792 15.394-10.042 17.07z"/><path fill="#fe8128" style="fill:var(--color8,#fe8128)" d="M15.999 7.377c-2.678 0-4.856 2.179-4.856 4.856s2.178 4.855 4.856 4.855 4.856-2.178 4.856-4.855a4.861 4.861 0 0 0-4.856-4.856zm0 7.519c-1.468 0-2.662-1.194-2.662-2.662s1.194-2.663 2.662-2.663 2.662 1.194 2.662 2.663-1.194 2.662-2.662 2.662z"/></symbol><symbol id="icon-clock-stroke" viewBox="0 0 32 32"><path fill="#fe8128" style="fill:var(--color8,#fe8128)" d="M16 0C7.178 0 0 7.177 0 15.999S7.178 32 16 32s16-7.178 16-16S24.823.001 16 .001zm0 29.706c-7.558 0-13.706-6.149-13.706-13.707S8.443 2.293 16 2.293c7.558 0 13.706 6.148 13.706 13.706S23.558 29.706 16 29.706z"/><path fill="#fe8128" style="fill:var(--color8,#fe8128)" d="M24.227 15.732h-7.519V7.513a1.147 1.147 0 1 0-2.294 0v9.366c0 .633.513 1.147 1.147 1.147h8.666a1.146 1.146 0 1 0 0-2.294z"/></symbol><symbol id="icon-phone-stroke" viewBox="0 0 32 32"><path fill="#fe8128" style="fill:var(--color8,#fe8128)" d="M27.046 4.141A14.047 14.047 0 0 0 17.048 0a1.12 1.12 0 0 0 0 2.24c3.178 0 6.166 1.238 8.414 3.485s3.485 5.236 3.485 8.414a1.12 1.12 0 0 0 2.24 0c0-3.777-1.471-7.328-4.141-9.999z"/><path fill="#fe8128" style="fill:var(--color8,#fe8128)" d="M22.437 14.14a1.12 1.12 0 0 0 2.24 0c0-4.207-3.423-7.629-7.63-7.63a1.12 1.12 0 1 0 0 2.241 5.397 5.397 0 0 1 5.39 5.389zM19.959 19.853c-1.708-.088-2.578 1.182-2.995 1.792a1.12 1.12 0 0 0 1.849 1.265c.493-.721.716-.834 1.019-.82.97.114 4.789 2.913 5.171 3.788.096.258.092.51-.011.818-.401 1.19-1.065 2.026-1.92 2.418-.812.372-1.808.339-2.88-.097-4-1.63-7.495-3.906-10.387-6.763l-.003-.003c-2.851-2.889-5.122-6.379-6.75-10.373-.436-1.072-.47-2.068-.097-2.88.392-.855 1.228-1.519 2.417-1.919.308-.103.561-.107.816-.012.878.384 3.677 4.203 3.79 5.161.016.314-.098.537-.818 1.03a1.12 1.12 0 1 0 1.264 1.85c.61-.417 1.88-1.284 1.792-2.998-.097-1.79-3.579-6.53-5.243-7.142-.74-.276-1.518-.281-2.314-.013-1.791.603-3.084 1.678-3.74 3.109-.636 1.388-.616 2.999.059 4.659 1.742 4.274 4.179 8.014 7.244 11.116a.24.24 0 0 0 .023.022c3.1 3.059 6.835 5.492 11.104 7.232.855.348 1.697.522 2.502.522a5.13 5.13 0 0 0 2.157-.463c1.431-.656 2.506-1.949 3.11-3.741.267-.794.262-1.572-.012-2.309-.614-1.668-5.354-5.15-7.147-5.247z"/></symbol><symbol id="icon-wave" viewBox="0 0 32 32"><path d="M29.635 15.02c-.296.296-.689.459-1.108.459s-.812-.163-1.108-.459a4.311 4.311 0 0 0-3.067-1.271 4.305 4.305 0 0 0-3.067 1.271 1.569 1.569 0 0 1-2.216 0 4.311 4.311 0 0 0-3.067-1.271 4.305 4.305 0 0 0-3.067 1.271 1.569 1.569 0 0 1-2.216 0 4.344 4.344 0 0 0-6.135 0 1.569 1.569 0 0 1-2.216 0 1.385 1.385 0 1 0-1.959 1.959 4.344 4.344 0 0 0 6.135 0 1.569 1.569 0 0 1 2.216 0 4.344 4.344 0 0 0 6.135 0c.296-.296.69-.459 1.108-.459s.812.163 1.108.459a4.344 4.344 0 0 0 6.135 0c.296-.296.69-.459 1.108-.459s.812.163 1.108.459c.819.819 1.909 1.271 3.067 1.271s2.248-.451 3.067-1.271a1.385 1.385 0 1 0-1.959-1.959z"/></symbol><symbol id="icon-close" viewBox="0 0 32 32"><path d="M32 3.223 28.777 0 16 12.777 3.223 0 0 3.223 12.777 16 0 28.777 3.223 32 16 19.223 28.777 32 32 28.777 19.223 16 32 3.223z"/></symbol><symbol id="icon-security" viewBox="0 0 32 32"><path d="M29.41 8.239c-.016-.864-.032-1.68-.032-2.47a1.12 1.12 0 0 0-1.12-1.12c-4.79 0-8.437-1.377-11.477-4.332a1.12 1.12 0 0 0-1.562 0c-3.04 2.956-6.686 4.332-11.476 4.332a1.12 1.12 0 0 0-1.12 1.12c0 .79-.016 1.606-.032 2.47-.154 8.04-.364 19.051 13.042 23.698a1.127 1.127 0 0 0 .734 0C29.774 27.29 29.564 16.278 29.411 8.238zM15.999 31.123C4.501 26.946 3.586 16.365 3.741 8.283c.009-.485.139-2.245.146-2.706C8.373 5.388 12.929 4.017 16 1.342c3.071 2.675 7.809 4.096 12.295 4.286.006.461.146 2.321.155 2.806.154 8.083-.952 18.513-12.451 22.69z"/><path d="m20.766 12.858-6.316 6.309-3.073-3.234c-.437-.437-.697-.781-1.134-.343s-.122.764.316 1.202l3.099 3.099c.219.219.505.446.792.446s.573-.228.792-.446l6.198-6.198c.438-.437.875-.76.438-1.198s-.674-.075-1.112.362z"/></symbol><symbol id="icon-delivery" viewBox="0 0 32 32"><path d="M26.162 21.043c-.782 0-1.525.306-2.085.86-.56.56-.873 1.29-.873 2.072s.306 1.512.873 2.072c.567.554 1.303.86 2.085.86 1.603 0 2.906-1.316 2.906-2.932s-1.303-2.932-2.906-2.932zm0 4.562c-.899 0-1.655-.743-1.655-1.629s.756-1.629 1.655-1.629c.886 0 1.603.73 1.603 1.629s-.717 1.629-1.603 1.629zM26.918 11.276a.632.632 0 0 0-.437-.169h-3.343a.654.654 0 0 0-.652.652v5.343c0 .358.293.652.652.652h5.304a.654.654 0 0 0 .652-.652v-3.577a.652.652 0 0 0-.215-.482l-1.961-1.766zm.873 5.174H23.79v-4.046h2.437l1.564 1.407v2.639zM10.25 21.043c-.782 0-1.525.306-2.085.86-.56.56-.873 1.29-.873 2.072s.306 1.512.873 2.072c.567.554 1.303.86 2.085.86 1.603 0 2.906-1.316 2.906-2.932s-1.303-2.932-2.906-2.932zm0 4.562c-.899 0-1.655-.743-1.655-1.629s.756-1.629 1.655-1.629c.886 0 1.603.73 1.603 1.629s-.717 1.629-1.603 1.629zM5.903 21.845h-1.31v-1.733c0-.358-.293-.652-.652-.652s-.652.293-.652.652v2.385c0 .358.293.652.652.652h1.961c.358 0 .652-.293.652-.652s-.293-.652-.652-.652zM9.207 18.294a.654.654 0 0 0-.652-.652H.651c-.358 0-.652.293-.652.652s.293.652.652.652h7.904a.65.65 0 0 0 .652-.652zM1.974 15.941l7.904.046a.658.658 0 0 0 .658-.645.645.645 0 0 0-.645-.658l-7.904-.046H1.98a.649.649 0 0 0-.652.645.645.645 0 0 0 .645.658zM3.304 12.983h7.904c.358 0 .652-.293.652-.652s-.293-.652-.652-.652H3.304c-.358 0-.652.293-.652.652s.293.652.652.652z"/><path d="m31.759 12.103-4.665-3.864a.64.64 0 0 0-.417-.15h-5.486V5.743a.654.654 0 0 0-.652-.652H3.943a.654.654 0 0 0-.652.652v4.77c0 .358.293.652.652.652s.652-.293.652-.652V6.395h15.3v15.449h-5.343c-.358 0-.652.293-.652.652s.293.652.652.652h7.956c.358 0 .652-.293.652-.652s-.293-.652-.652-.652h-1.31V9.392h5.252l4.248 3.519-.046 8.92h-.678c-.358 0-.652.293-.652.652s.293.652.652.652h1.323a.649.649 0 0 0 .652-.645l.052-9.878a.69.69 0 0 0-.241-.508z"/></symbol><symbol id="icon-wallet" viewBox="0 0 32 32"><path d="M31.467 17.067h-.533v-8a.533.533 0 0 0-.533-.533h-1.6V4.801a.533.533 0 0 0-.533-.533h-5.004l-.386-.772a.535.535 0 0 0-.675-.257l-1.567.627L18.035.224a.533.533 0 0 0-.706-.149l-7.104 4.21c-.03-.005-.058-.018-.09-.018H2.668A2.67 2.67 0 0 0 .001 6.934v24.533c0 .294.238.533.533.533h29.867a.533.533 0 0 0 .533-.533v-8h.533a.533.533 0 0 0 .533-.533v-5.333a.533.533 0 0 0-.533-.533zM27.733 5.333v3.2h-2.337l-1.6-3.2h3.937zm-5.591-.922 2.061 4.123H11.836l10.306-4.123zm-4.691-3.169 2.165 3.031-10.652 4.26H5.146l12.305-7.291zM2.667 5.333h5.787l-5.4 3.2h-.387c-.882 0-1.6-.718-1.6-1.6s.718-1.6 1.6-1.6zm27.2 25.6h-28.8V9.053c.447.338.997.547 1.6.547H29.867v7.467h-3.2c-1.765 0-3.2 1.435-3.2 3.2s1.435 3.2 3.2 3.2h3.2v7.467zm1.066-8.533h-4.267c-1.177 0-2.133-.957-2.133-2.133s.957-2.133 2.133-2.133h4.267v4.267z"/></symbol></defs></svg>